# xmcd
#
# Track frame offsets:
#	150
#	18801
#	34342
#	48853
#	69113
#
# Disc length: 1065 seconds
# Revision: 0
# Processed by: cddbd v1.5.2PL0 Copyright (c) Steve Scherf et al.
# Submitted via: dBpowerAMP V12.0
#
DISCID=31042705
DTITLE=Andre Williams and The Goldstars - Nightclub
DYEAR=2012
DGENRE=
TTITLE0=Nightclub
TTITLE1=Hot Coffee
TTITLE2=Babblin' Brook
TTITLE3=The Hard Way
TTITLE4=Oh Baby!
EXTD=
EXTT0=
EXTT1=
EXTT2=
EXTT3=
EXTT4=
PLAYORDER=
